# xmcd
#
# Track frame offsets: 
#        150
#        22721
#        39212
#        66801
#        83017
#        107827
#        125791
#        151626
#        172498
#        191862
#        223341
#        239903
#        252219
#        277036
#        296358
#
# Disc length: 4355 seconds
#
# Revision: 5
# Processed by: cddbd v1.5.2PL0 Copyright (c) Steve Scherf et al.
# Submitted via: ExactAudioCopy v1.0b1
#
DISCID=df11010f
DTITLE=Bjorn Afzelius - Bjorn Afzelius Basta {HDCD} [CD 2)
DYEAR=2005
DGENRE=Swedish progg
TTITLE0=Juanita
TTITLE1=D.S.B. Blues
TTITLE2=Bella Donna
TTITLE3=Ikaros
TTITLE4=Brukshotellet
TTITLE5=Nattlig Visit
TTITLE6=Rebecca
TTITLE7=En Natt I Santiago
TTITLE8=Tankar Vid 50
TTITLE9=Måne Over Corsica
TTITLE10=Odyssevs
TTITLE11=Farväl Till Släkt Och Vänner
TTITLE12=Drottningen Av Vence
TTITLE13=Två Ljus
TTITLE14=Landet Bortom Bergen
EXTD=YEAR: 2005
EXTT0=
EXTT1=
EXTT2=
EXTT3=
EXTT4=
EXTT5=
EXTT6=
EXTT7=
EXTT8=
EXTT9=
EXTT10=
EXTT11=
EXTT12=
EXTT13=
EXTT14=
PLAYORDER=
